<?xml version="1.0" encoding="utf-8"?>
<!-- Generator: Adobe Illustrator 17.0.0, SVG Export Plug-In . SVG Version: 6.00 Build 0)  -->
<!DOCTYPE svg PUBLIC "-//W3C//DTD SVG 1.1//EN" "http://www.w3.org/Graphics/SVG/1.1/DTD/svg11.dtd">
<svg version="1.1" id="Layer_1" xmlns="http://www.w3.org/2000/svg" xmlns:xlink="http://www.w3.org/1999/xlink" x="0px" y="0px"
	 width="40px" height="40px" viewBox="0 0 40 40" enable-background="new 0 0 40 40" xml:space="preserve">
<linearGradient id="SVGID_1_" gradientUnits="userSpaceOnUse" x1="34.5625" y1="35.75" x2="34.5625" y2="35.75">
	<stop  offset="0" style="stop-color:#FFFFFF"/>
	<stop  offset="0.4141" style="stop-color:#C1E6E9"/>
	<stop  offset="0.6403" style="stop-color:#A4DBDE"/>
</linearGradient>
<path fill="url(#SVGID_1_)" stroke="#A7A9AC" stroke-width="0.5" stroke-miterlimit="10" d="M34.562,35.75"/>
<linearGradient id="SVGID_2_" gradientUnits="userSpaceOnUse" x1="20" y1="8.409" x2="20" y2="31.591">
	<stop  offset="0" style="stop-color:#FFFFFF"/>
	<stop  offset="0.4141" style="stop-color:#C1E6E9"/>
	<stop  offset="0.6403" style="stop-color:#A4DBDE"/>
</linearGradient>
<path fill="url(#SVGID_2_)" stroke="#A7A9AC" stroke-width="0.5" stroke-miterlimit="10" d="M34.888,29.88
	c-5.248,1.452-25.189,2.985-29.688,0s-6.938-11.062,2.188-8.5c0,0-2.5-14.438,8.562-8.562c0,0,5.5-9.75,9.812-0.25
	c0,0,12.252-4.173,7.25,5.875C40.702,18.082,40.137,28.428,34.888,29.88z"/>
<g>
	<path fill="#7ECED1" d="M4.789,28.102c-0.414-0.266-0.81-0.574-1.183-0.91c0.585,0.72,1.27,1.371,2.015,1.876
		c4.409,2.985,23.951,1.452,29.095,0c1.138-0.321,2.05-1.079,2.701-2.058c-0.561,0.502-1.224,0.888-1.987,1.092
		C30.014,29.555,9.432,31.088,4.789,28.102z"/>
</g>
</svg>
