<?xml version="1.0" encoding="utf-8"?>
<!-- Generator: Adobe Illustrator 17.0.0, SVG Export Plug-In . SVG Version: 6.00 Build 0)  -->
<!DOCTYPE svg PUBLIC "-//W3C//DTD SVG 1.1//EN" "http://www.w3.org/Graphics/SVG/1.1/DTD/svg11.dtd">
<svg version="1.1" id="Layer_1" xmlns="http://www.w3.org/2000/svg" xmlns:xlink="http://www.w3.org/1999/xlink" x="0px" y="0px"
	 width="300px" height="50px" viewBox="0 0 300 50" enable-background="new 0 0 300 50" xml:space="preserve">
<g>
	<circle fill="#FFFFFF" stroke="#000000" stroke-miterlimit="10" cx="274.899" cy="25" r="23.698"/>
	
		<ellipse fill="#FFFFFF" stroke="#000000" stroke-width="0.5" stroke-miterlimit="10" cx="279.125" cy="20.417" rx="4.875" ry="10.25"/>
	
		<ellipse fill="#FFFFFF" stroke="#000000" stroke-width="0.5" stroke-miterlimit="10" cx="269.75" cy="19.667" rx="4.5" ry="4.667"/>
	<circle cx="272.167" cy="20.75" r="1.083"/>
	<circle cx="276.667" cy="25" r="1.083"/>
	<ellipse cx="275" cy="39.167" rx="12.667" ry="6.5"/>
</g>
<g>
	<circle fill="#FFFFFF" stroke="#000000" stroke-miterlimit="10" cx="150" cy="25.003" r="23.698"/>
	<line fill="none" stroke="#000000" stroke-width="0.5" stroke-miterlimit="10" x1="140.688" y1="35.737" x2="159.042" y2="35.83"/>
	
		<ellipse fill="#FFFFFF" stroke="#000000" stroke-width="0.5" stroke-miterlimit="10" cx="145.543" cy="18.208" rx="4.5" ry="4.667"/>
	<circle cx="145.543" cy="18.208" r="1.083"/>
	
		<ellipse fill="#FFFFFF" stroke="#000000" stroke-width="0.5" stroke-miterlimit="10" cx="154.543" cy="18.208" rx="4.5" ry="4.667"/>
	<circle cx="154.543" cy="18.208" r="1.083"/>
</g>
<g>
	<circle fill="#FFFFFF" stroke="#000000" stroke-miterlimit="10" cx="86.01" cy="25" r="23.698"/>
	<path fill="#FFFFFF" stroke="#000000" stroke-width="0.5" stroke-miterlimit="10" d="M72.173,32.438c0,0,12.485,18.883,28.125,0"/>
</g>
<path fill="none" stroke="#000000" stroke-width="0.5" stroke-miterlimit="10" d="M226.733,35.542"/>
<path fill="none" stroke="#000000" stroke-width="0.5" stroke-miterlimit="10" d="M200.149,35.458"/>
<g>
	<circle fill="#FFFFFF" stroke="#000000" stroke-miterlimit="10" cx="213.441" cy="25" r="23.698"/>
	<ellipse fill="#FFFFFF" stroke="#000000" stroke-width="0.5" stroke-miterlimit="10" cx="210" cy="18.208" rx="4.5" ry="4.667"/>
	<circle cx="212.358" cy="18.938" r="1.083"/>
	
		<ellipse fill="#FFFFFF" stroke="#000000" stroke-width="0.5" stroke-miterlimit="10" cx="219.45" cy="18.208" rx="4.5" ry="4.667"/>
	<circle cx="216.917" cy="18.938" r="1.083"/>
	<path fill="none" stroke="#000000" stroke-width="0.5" stroke-miterlimit="10" d="M200.149,35.458c0,0,1.851-1.458,3.288-1.271
		s1.312,2.125,3,2.125s1.688-2.375,3.25-1.875s0.84,1.812,2.67,1.875c1.83,0.062,2.392-2.596,4.205-2.142
		c1.812,0.454,0.649,2.519,2.887,2.143c2.238-0.376,0.738-2.139,2.3-2.195s2,2.35,3.25,2.24s0.75-2.061,2-2.241"/>
	<g>
		<path d="M228.241,34.461c0.066,0.725-0.321,1.541-1.002,2.332c1.085-0.775,1.806-1.761,1.722-2.603
			c-0.082-0.828-0.921-1.25-2.052-1.245C227.677,33.235,228.176,33.742,228.241,34.461z"/>
	</g>
	<g>
		<path d="M199.161,35.085c-0.031,0.692,0.383,1.293,1.082,1.757c-1.093-0.293-1.84-0.921-1.797-1.728
			c0.043-0.793,0.842-1.505,1.945-1.938C199.656,33.74,199.193,34.398,199.161,35.085z"/>
	</g>
	<g>
		<path d="M215.911,38.346c-0.332,0.028-1.101,0.129-1.411,0.497c0.275-0.549,1.097-0.813,1.483-0.842
			c0.38-0.029,1.432,0.102,1.508,0.61C217.307,38.289,216.24,38.319,215.911,38.346z"/>
	</g>
	<g>
		<path d="M223.726,13.302c-1.326-1.019-1.426-1.261-2.615-1.632c-2.933-0.915-2.884-0.816-4.817-0.638
			c-0.564,0.052-0.628,0.701-0.706,1.17c0.951-0.159,1.986-0.036,3.087,0.012C221.788,12.352,221.788,12.352,223.726,13.302z"/>
	</g>
	<g>
		<path d="M205.634,13.114c1.213-1.031,1.302-1.28,2.399-1.641c2.708-0.892,2.665-0.79,4.465-0.567
			c0.525,0.065,0.597,0.739,0.678,1.227c-0.887-0.183-1.847-0.076-2.868-0.048C207.416,12.167,207.416,12.167,205.634,13.114z"/>
	</g>
</g>
<g>
	<g>
		<circle fill="#FFFFFF" stroke="#000000" stroke-miterlimit="10" cx="25.688" cy="24.972" r="23.698"/>
	</g>
	
		<ellipse fill="#FFFFFF" stroke="#000000" stroke-width="0.5" stroke-miterlimit="10" cx="20.869" cy="16.208" rx="4.5" ry="4.667"/>
	<circle cx="21.751" cy="16.583" r="1.083"/>
	
		<ellipse fill="#FFFFFF" stroke="#000000" stroke-width="0.5" stroke-miterlimit="10" cx="30.319" cy="16.208" rx="4.5" ry="4.667"/>
	<circle cx="28.869" cy="16.583" r="1.083"/>
	<path fill="#FFFFFF" stroke="#000000" stroke-width="0.5" stroke-miterlimit="10" d="M12.25,30.522c0,0,13.069,8.25,26.688,0
		c0,0-1.688,13.171-13.194,13.187C12.25,43.729,12.25,30.522,12.25,30.522z"/>
	<g>
		<path d="M34.819,12.062c0.069-0.937-0.6-2-1.915-2.756c-1.603-0.922-3.259-1.257-4.012-0.283c-0.227,0.294-0.32,0.658-0.317,1.05
			c0.584-0.264,1.243-0.427,1.955-0.427C32.455,9.645,34.367,10.578,34.819,12.062z"/>
	</g>
	<g>
		<path d="M16.557,12.243c-0.224-0.914,0.356-2.082,1.706-3.062c1.645-1.195,3.443-1.821,4.437-0.992
			c0.3,0.25,0.461,0.593,0.519,0.98c-0.694-0.157-1.456-0.201-2.25-0.075C18.817,9.436,16.828,10.696,16.557,12.243z"/>
	</g>
	<g>
		<path d="M39.522,29.74c0.348,0.395,0.45,1.021,0.358,1.746c0.354-0.874,0.39-1.729-0.019-2.185
			c-0.402-0.449-1.108-0.366-1.817,0.08C38.648,29.249,39.176,29.348,39.522,29.74z"/>
	</g>
	<g>
		<path d="M11.801,29.74c-0.371,0.395-0.48,1.021-0.381,1.746c-0.377-0.874-0.415-1.729,0.02-2.185
			c0.428-0.449,1.18-0.366,1.934,0.08C12.73,29.249,12.168,29.348,11.801,29.74z"/>
	</g>
	
		<ellipse fill="#FFFFFF" stroke="#000000" stroke-width="0.5" stroke-miterlimit="10" cx="81.286" cy="18.208" rx="4.5" ry="4.667"/>
	<circle cx="82.168" cy="18.583" r="1.083"/>
	
		<ellipse fill="#FFFFFF" stroke="#000000" stroke-width="0.5" stroke-miterlimit="10" cx="90.735" cy="18.208" rx="4.5" ry="4.667"/>
	<circle cx="89.286" cy="18.583" r="1.083"/>
	<g>
		<path d="M94.811,13.058c-0.023-0.94-0.871-1.919-2.397-2.518c-1.86-0.73-3.718-0.87-4.443,0.186
			c-0.219,0.319-0.282,0.692-0.238,1.081c0.615-0.33,1.322-0.57,2.105-0.653C91.956,10.93,94.157,11.634,94.811,13.058z"/>
	</g>
	<g>
		<path d="M76.76,13.12c0.013-0.941,0.869-1.925,2.423-2.533c1.894-0.742,3.791-0.894,4.543,0.158
			c0.227,0.317,0.296,0.69,0.255,1.079c-0.632-0.327-1.358-0.562-2.159-0.64C79.655,10.974,77.413,11.692,76.76,13.12z"/>
	</g>
</g>
<g>
	<path d="M265.32,15c0.826-1.361,0.831-1.625,1.759-2.314c2.288-1.7,2.28-1.59,4.058-1.947c0.518-0.104,0.8,0.513,1.03,0.95
		c-0.899,0.106-1.453,0.05-2.414,0.4C267.035,13.079,266.712,13.539,265.32,15z"/>
</g>
<g>
	<path d="M283.556,10.726c-0.922-1.238-0.952-1.499-1.908-2.062c-2.359-1.39-2.34-1.282-4.082-1.41
		c-0.508-0.037-0.72,0.607-0.9,1.067c0.874-0.009,1.401-0.134,2.356,0.091C281.727,9.047,282.081,9.46,283.556,10.726z"/>
</g>
<g>
	<path d="M100.72,31.933c0.348,0.395,0.45,1.021,0.358,1.746c0.354-0.874,0.39-1.729-0.019-2.185
		c-0.402-0.449-1.108-0.366-1.817,0.08C99.847,31.442,100.374,31.541,100.72,31.933z"/>
</g>
<g>
	<path d="M71.457,31.933c-0.371,0.395-0.48,1.021-0.381,1.746c-0.377-0.874-0.415-1.729,0.02-2.185
		c0.428-0.449,1.18-0.366,1.934,0.08C72.387,31.442,71.825,31.541,71.457,31.933z"/>
</g>
<g>
	<path d="M159.695,12.46c-1.326-1.019-1.426-1.261-2.615-1.632c-2.933-0.915-2.884-0.816-4.817-0.638
		c-0.564,0.052-0.628,0.701-0.706,1.17c0.951-0.159,2.116-0.318,3.216-0.269C157.887,11.229,157.758,11.511,159.695,12.46z"/>
</g>
<g>
	<path d="M140.688,12.447c1.213-1.031,1.302-1.28,2.399-1.641c2.708-0.892,2.665-0.79,4.465-0.567
		c0.525,0.065,0.597,0.739,0.678,1.227c-0.887-0.183-1.683-0.411-2.705-0.382C142.634,11.165,142.471,11.5,140.688,12.447z"/>
</g>
</svg>
