<?xml version="1.0" encoding="utf-8"?>
<!-- Generator: Adobe Illustrator 17.0.0, SVG Export Plug-In . SVG Version: 6.00 Build 0)  -->
<!DOCTYPE svg PUBLIC "-//W3C//DTD SVG 1.1//EN" "http://www.w3.org/Graphics/SVG/1.1/DTD/svg11.dtd">
<svg version="1.1" id="Layer_1" xmlns="http://www.w3.org/2000/svg" xmlns:xlink="http://www.w3.org/1999/xlink" x="0px" y="0px"
	 width="40px" height="40px" viewBox="0 0 40 40" enable-background="new 0 0 40 40" xml:space="preserve">
<path fill="#A6A6A6" d="M36.301,17.139H22.705V3.542c0-1.629-1.155-2.949-2.58-2.949c-1.425,0-2.58,1.32-2.58,2.949v13.596H3.949
	C2.32,17.139,1,18.294,1,19.719c0,1.425,1.32,2.58,2.949,2.58h13.596v13.596c0,1.628,1.155,2.949,2.58,2.949
	c1.425,0,2.58-1.32,2.58-2.949V22.299h13.596c1.629,0,2.949-1.155,2.949-2.58C39.25,18.294,37.93,17.139,36.301,17.139z"/>
</svg>
