<?xml version="1.0" encoding="utf-8"?>
<!-- Generator: Adobe Illustrator 17.1.0, SVG Export Plug-In . SVG Version: 6.00 Build 0)  -->
<!DOCTYPE svg PUBLIC "-//W3C//DTD SVG 1.1//EN" "http://www.w3.org/Graphics/SVG/1.1/DTD/svg11.dtd">
<svg version="1.1" id="Layer_1" xmlns="http://www.w3.org/2000/svg" xmlns:xlink="http://www.w3.org/1999/xlink" x="0px" y="0px"
	 viewBox="0 0 320 150" enable-background="new 0 0 320 150" xml:space="preserve">
<g>
	<text transform="matrix(2.08 0 0 1 15.6909 -28.3198)"><tspan x="0" y="0" font-family="'HelveticaNeue-Bold'" font-size="12" letter-spacing="2.9">N</tspan><tspan x="11.9" y="0" font-family="'HelveticaNeue-Bold'" font-size="12"> gger</tspan></text>
	<g>
		<g>
			<ellipse fill="#FFFFFF" stroke="#231F20" stroke-miterlimit="10" cx="39.6" cy="-31.2" rx="6.1" ry="6"/>
			<ellipse fill="#FFFFFF" stroke="#231F20" stroke-width="0.5" stroke-miterlimit="10" cx="40.7" cy="-32.4" rx="1.2" ry="2.6"/>
			<ellipse fill="#FFFFFF" stroke="#231F20" stroke-width="0.5" stroke-miterlimit="10" cx="38.3" cy="-32.6" rx="1.2" ry="1.2"/>
			<circle fill="#231F20" cx="38.9" cy="-32.3" r="0.3"/>
			<circle fill="#231F20" cx="40" cy="-31.2" r="0.3"/>
			<ellipse fill="#231F20" cx="39.6" cy="-27.6" rx="3.2" ry="1.6"/>
		</g>
		<g>
			<path d="M37.1-33.7c0.2-0.3,0.2-0.4,0.5-0.6c0.6-0.4,0.6-0.4,1-0.5c0.1,0,0.2,0.1,0.3,0.2c-0.2,0-0.4,0-0.6,0.1
				C37.6-34.2,37.5-34.1,37.1-33.7z"/>
		</g>
		<g>
			<path d="M41.8-34.8c-0.2-0.3-0.2-0.4-0.5-0.5c-0.6-0.4-0.6-0.3-1-0.4c-0.1,0-0.2,0.2-0.2,0.3c0.2,0,0.4,0,0.6,0
				C41.3-35.2,41.4-35.1,41.8-34.8z"/>
		</g>
	</g>
</g>
<ellipse fill="#FFFFFF" stroke="#231F20" stroke-width="0.5" stroke-miterlimit="10" cx="-11.4" cy="160.4" rx="4.9" ry="10.2"/>
<ellipse fill="#FFFFFF" stroke="#231F20" stroke-width="0.5" stroke-miterlimit="10" cx="-20.8" cy="159.7" rx="4.5" ry="4.7"/>
<circle fill="#231F20" cx="-18.4" cy="160.7" r="1.1"/>
<circle fill="#231F20" cx="-13.9" cy="165" r="1.1"/>
<ellipse fill="#231F20" cx="-15.5" cy="179.2" rx="12.7" ry="6.5"/>
<path d="M-25.2,154.7c0.8-1.4,0.8-1.6,1.8-2.3c2.3-1.7,2.3-1.6,4.1-1.9c0.5-0.1,0.8,0.5,1,1c-0.9,0.1-1.5,0-2.4,0.4
	C-23.5,152.8-23.8,153.2-25.2,154.7z"/>
<path d="M-7,150.4c-0.9-1.2-1-1.5-1.9-2.1c-2.4-1.4-2.3-1.3-4.1-1.4c-0.5,0-0.7,0.6-0.9,1.1c0.9,0,1.4-0.1,2.4,0.1
	C-8.8,148.7-8.5,149.2-7,150.4z"/>
<g>
	<ellipse fill="#FFFFFF" stroke="#231F20" stroke-width="0.5" stroke-miterlimit="10" cx="337.9" cy="156.8" rx="4.5" ry="4.7"/>
	<circle fill="#231F20" cx="338.8" cy="157.2" r="1.1"/>
	<ellipse fill="#FFFFFF" stroke="#231F20" stroke-width="0.5" stroke-miterlimit="10" cx="347.4" cy="156.8" rx="4.5" ry="4.7"/>
	<circle fill="#231F20" cx="345.9" cy="157.2" r="1.1"/>
	<path fill="#FFFFFF" stroke="#231F20" stroke-width="0.5" stroke-miterlimit="10" d="M329.3,171.1c0,0,13.1,8.2,26.7,0
		c0,0-1.7,13.2-13.2,13.2C329.3,184.3,329.3,171.1,329.3,171.1z"/>
	<g>
		<path d="M351.9,152.6c0.1-0.9-0.6-2-1.9-2.8c-1.6-0.9-3.3-1.3-4-0.3c-0.2,0.3-0.3,0.7-0.3,1c0.6-0.3,1.2-0.4,2-0.4
			C349.5,150.2,351.4,151.2,351.9,152.6z"/>
	</g>
	<g>
		<path d="M333.6,152.8c-0.2-0.9,0.4-2.1,1.7-3.1c1.6-1.2,3.4-1.8,4.4-1c0.3,0.2,0.5,0.6,0.5,1c-0.7-0.2-1.5-0.2-2.3-0.1
			C335.9,150,333.9,151.3,333.6,152.8z"/>
	</g>
	<g>
		<path d="M328.9,170.3c-0.4,0.4-0.5,1-0.4,1.7c-0.4-0.9-0.4-1.7,0-2.2c0.4-0.4,1.2-0.4,1.9,0.1
			C329.8,169.8,329.2,169.9,328.9,170.3z"/>
	</g>
</g>
<rect x="205.8" y="161.3" width="76.1" height="59.5"/>
<text transform="matrix(3.15 0 0 1 65.9684 68.6143)" fill="#FFFFFF" font-family="'HelveticaNeue-CondensedBold'" font-size="18">NAGGER</text>
<ellipse fill="#FFFFFF" cx="38.1" cy="55.5" rx="4.9" ry="10.2"/>
<ellipse fill="#FFFFFF" cx="28.7" cy="54.7" rx="4.5" ry="4.7"/>
<circle cx="31.2" cy="55.8" r="1.1"/>
<circle cx="35.7" cy="60.1" r="1.1"/>
<path fill="#FFFFFF" d="M24.3,49.8c0.8-1.4,0.8-1.6,1.8-2.3c2.3-1.7,2.3-1.6,4.1-1.9c0.5-0.1,0.8,0.5,1,1c-0.9,0.1-1.5,0-2.4,0.4
	C26,47.8,25.7,48.3,24.3,49.8z"/>
<path fill="#FFFFFF" d="M42.6,45.5c-0.9-1.2-1-1.5-1.9-2.1c-2.4-1.4-2.3-1.3-4.1-1.4c-0.5,0-0.7,0.6-0.9,1.1c0.9,0,1.4-0.1,2.4,0.1
	C40.7,43.8,41.1,44.2,42.6,45.5z"/>
<ellipse fill="#FFFFFF" cx="32.2" cy="75" rx="12.7" ry="6.5"/>
</svg>
